<svg width="60" height="60" viewBox="0 0 60 60" fill="none" xmlns="http://www.w3.org/2000/svg">
<path opacity="0.25" fill-rule="evenodd" clip-rule="evenodd" d="M30.2236 58.203C45.8498 58.203 58.5173 45.5355 58.5173 29.9093C58.5173 14.2831 45.8498 1.6156 30.2236 1.6156C14.5975 1.6156 1.92993 14.2831 1.92993 29.9093C1.92993 45.5355 14.5975 58.203 30.2236 58.203Z" stroke="#373738" stroke-width="2.00084"/>
<path d="M32.7986 22.6668H35.399C35.6382 22.6668 35.8324 22.4839 35.8324 22.2584V19.8081C35.8324 19.5826 35.6382 19.3997 35.399 19.3997H32.7986C30.1704 19.3997 28.0312 21.4147 28.0312 23.892V26.7508H24.9974C24.7581 26.7508 24.564 26.9337 24.564 27.1592V29.6096C24.564 29.835 24.7581 30.018 24.9974 30.018H28.0312V38.5943C28.0312 38.8197 28.2253 39.0027 28.4646 39.0027H31.065C31.3042 39.0027 31.4984 38.8197 31.4984 38.5943V30.018H34.5322C34.7185 30.018 34.8841 29.9052 34.9439 29.7386L35.8107 27.2882C35.8549 27.1641 35.8324 27.0269 35.7509 26.9199C35.6685 26.8137 35.5385 26.7508 35.399 26.7508H31.4984V23.892C31.4984 23.2165 32.0817 22.6668 32.7986 22.6668Z" fill="#373738"/>
</svg>
