<svg width="59" height="60" viewBox="0 0 59 60" fill="none" xmlns="http://www.w3.org/2000/svg">
<path opacity="0.25" fill-rule="evenodd" clip-rule="evenodd" d="M29.3853 58.2047C45.0114 58.2047 57.679 45.5372 57.679 29.911C57.679 14.2848 45.0114 1.61731 29.3853 1.61731C13.7591 1.61731 1.09155 14.2848 1.09155 29.911C1.09155 45.5372 13.7591 58.2047 29.3853 58.2047Z" stroke="#373738" stroke-width="2.00084"/>
<path d="M22.892 24.1975C24.2167 24.1975 25.2906 23.1237 25.2906 21.799C25.2906 20.4743 24.2167 19.4004 22.892 19.4004C21.5673 19.4004 20.4934 20.4743 20.4934 21.799C20.4934 23.1237 21.5673 24.1975 22.892 24.1975Z" fill="#373738"/>
<path d="M24.8913 25.7993H20.8937C20.673 25.7993 20.4939 25.9784 20.4939 26.1991V38.192C20.4939 38.4126 20.673 38.5917 20.8937 38.5917H24.8913C25.112 38.5917 25.2911 38.4126 25.2911 38.192V26.1991C25.2911 25.9784 25.112 25.7993 24.8913 25.7993Z" fill="#373738"/>
<path d="M36.8038 25.1341C35.0952 24.5488 32.9581 25.0629 31.6765 25.9848C31.6325 25.8129 31.4758 25.6849 31.2895 25.6849H27.2919C27.0712 25.6849 26.8921 25.864 26.8921 26.0847V38.0776C26.8921 38.2983 27.0712 38.4774 27.2919 38.4774H31.2895C31.5102 38.4774 31.6892 38.2983 31.6892 38.0776V29.4587C32.3353 28.9022 33.1676 28.7247 33.8488 29.0142C34.5092 29.2932 34.8874 29.9744 34.8874 30.8819V38.0776C34.8874 38.2983 35.0664 38.4774 35.2871 38.4774H39.2847C39.5054 38.4774 39.6845 38.2983 39.6845 38.0776V30.0767C39.6389 26.7915 38.0935 25.5754 36.8038 25.1341Z" fill="#373738"/>
</svg>
