<svg width="71" height="47" viewBox="0 0 71 47" fill="none" xmlns="http://www.w3.org/2000/svg">
<path d="M70.2803 12.5115L35.8808 0.0649532C35.6359 -0.0216511 35.3685 -0.0216511 35.1235 0.0649532L0.724049 12.5115C0.303858 12.6625 0.0184878 13.0511 0.000511677 13.4908C-0.0129704 13.9327 0.240942 14.3413 0.647651 14.5234L14.8128 20.8477V37.1693C14.8128 42.6809 23.8997 47 35.501 47C47.1024 47 56.1915 42.6831 56.1915 37.1693V20.8477L61.9776 18.2652V27.4141C61.3596 28.3712 59.4182 31.6244 59.4182 34.8954C59.4182 38.9081 61.7102 39.5076 63.0741 39.5076C64.4403 39.5076 66.7345 38.9058 66.7345 34.8954C66.7345 32.7814 65.4335 29.0907 64.1796 27.4652V17.2792L70.3522 14.5234C70.7589 14.3413 71.015 13.9327 70.9993 13.4908C70.9836 13.0511 70.6982 12.6625 70.2803 12.5115ZM63.0741 37.3314C62.5303 37.3314 61.6203 37.3314 61.6203 34.8954C61.6203 33.0767 62.4135 31.1736 63.0764 29.899C63.7437 31.1803 64.5302 33.0834 64.5302 34.8954C64.5324 37.3314 63.6224 37.3314 63.0741 37.3314ZM35.501 44.8238C24.4412 44.8238 17.0126 40.8644 17.0126 37.1693V35.2218C20.9539 38.022 27.9196 39.8207 35.501 39.8207C43.0847 39.8207 50.0504 38.022 53.9894 35.2218V37.1693C53.9894 40.8622 46.5608 44.8238 35.501 44.8238ZM53.9894 32.4127C51.5065 34.9842 44.8261 37.6423 35.501 37.6423C26.1804 37.6423 19.4978 34.9842 17.0126 32.4127V21.8315L35.0471 29.8812C35.1887 29.9456 35.346 29.9789 35.4988 29.9789C35.6538 29.9789 35.8089 29.9456 35.9527 29.8812L53.9849 21.8315V32.4127H53.9894ZM35.501 27.6961L4.01367 13.6396L35.501 2.2456L66.9884 13.6396L35.501 27.6961Z" fill="#2C3CBE"/>
</svg>
