<svg width="60" height="60" viewBox="0 0 60 60" fill="none" xmlns="http://www.w3.org/2000/svg">
<path opacity="0.25" fill-rule="evenodd" clip-rule="evenodd" d="M30.0637 58.203C45.6899 58.203 58.3574 45.5355 58.3574 29.9093C58.3574 14.2831 45.6899 1.6156 30.0637 1.6156C14.4375 1.6156 1.77002 14.2831 1.77002 29.9093C1.77002 45.5355 14.4375 58.203 30.0637 58.203Z" stroke="#373738" stroke-width="2.00084"/>
<path d="M39.3119 24.6778C39.1806 24.5294 38.9689 24.4921 38.7952 24.5836C38.6873 24.6404 38.4842 24.7151 38.2432 24.7888C38.5473 24.373 38.7918 23.9074 38.8998 23.4888C38.9464 23.3084 38.8782 23.1183 38.7296 23.0108C38.581 22.9041 38.3832 22.9041 38.2346 23.0108C38.0004 23.1787 36.8704 23.6834 36.156 23.8469C34.5413 22.3923 32.6623 22.2412 30.709 23.4142C29.1211 24.3676 28.7756 26.3066 28.843 27.4884C25.2085 27.1285 22.9493 25.1541 21.6777 23.5199C21.5887 23.4053 21.4453 23.3449 21.3105 23.3538C21.1688 23.3644 21.041 23.4453 20.9684 23.5706C20.3671 24.6147 20.2004 25.769 20.4881 26.909C20.6453 27.5311 20.92 28.0793 21.2388 28.5236C21.0859 28.4463 20.9382 28.3495 20.7991 28.2339C20.6712 28.1255 20.4924 28.1051 20.3412 28.1771C20.1909 28.2508 20.095 28.4072 20.095 28.5787C20.095 30.5363 21.2854 31.8425 22.3973 32.525C22.2176 32.5028 22.0301 32.4619 21.8409 32.4023C21.6785 32.3517 21.5023 32.4023 21.39 32.5339C21.2777 32.6645 21.2509 32.8511 21.3209 33.0101C21.9455 34.431 23.129 35.4085 24.5934 35.763C23.3148 36.5352 21.6034 36.9137 20.0362 36.728C19.8332 36.6987 19.6397 36.8311 19.5758 37.0319C19.5118 37.2328 19.5956 37.4531 19.7745 37.5562C22.152 38.9291 24.3014 39.4196 26.1588 39.4196C28.862 39.4196 30.9483 38.3817 32.2183 37.5136C35.642 35.1765 37.7758 30.9806 37.4786 27.2263C38.0272 26.8095 38.8479 26.04 39.3568 25.2127C39.4622 25.0456 39.4432 24.8253 39.3119 24.6778Z" fill="#373738"/>
</svg>
